<?xml version="1.0" standalone="no"?>
<!DOCTYPE svg PUBLIC "-//W3C//DTD SVG 20010904//EN"
 "http://www.w3.org/TR/2001/REC-SVG-20010904/DTD/svg10.dtd">
<svg version="1.0" xmlns="http://www.w3.org/2000/svg"
 width="512.000000pt" height="512.000000pt" viewBox="0 0 512.000000 512.000000"
 preserveAspectRatio="xMidYMid meet">

<g transform="translate(0.000000,512.000000) scale(0.100000,-0.100000)"
fill="#000000" stroke="none">
<path d="M752 5090 c-12 -12 -23 -22 -24 -23 -2 -1 -5 -428 -8 -950 l-5 -948
-345 -164 c-190 -91 -351 -173 -357 -182 -10 -13 -13 -301 -13 -1357 0 -1257
1 -1343 18 -1376 9 -19 32 -45 51 -57 l34 -23 742 0 742 0 21 23 c28 30 29 78
1 103 -20 18 -50 19 -685 24 l-663 5 127 135 c70 75 408 435 752 800 343 366
643 685 665 709 l41 44 318 -152 c175 -83 335 -155 357 -161 27 -8 51 -8 78 0
22 6 182 78 356 161 l318 151 32 -33 c18 -19 142 -150 275 -292 134 -142 254
-263 268 -268 52 -20 113 42 93 95 -6 14 -123 145 -261 291 -137 146 -250 269
-250 273 0 5 345 173 767 374 l768 365 3 -1180 c1 -649 -1 -1183 -4 -1186 -3
-3 -27 17 -52 46 -141 156 -795 842 -808 847 -49 19 -104 -20 -104 -73 0 -33
-26 -4 563 -631 l296 -315 -1512 -5 c-832 -3 -1519 -9 -1528 -13 -39 -20 -45
-81 -11 -119 14 -17 104 -18 1612 -18 l1597 0 34 23 c19 12 42 38 51 57 17 33
18 119 18 1376 0 1056 -3 1344 -12 1357 -7 9 -168 91 -358 182 l-345 164 -5
948 c-3 522 -6 949 -8 950 -1 1 -12 11 -24 23 -22 20 -24 20 -1808 20 -1784 0
-1786 0 -1808 -20z m3496 -1060 c2 -509 0 -1065 -4 -1237 l-6 -311 -352 -168
c-536 -255 -1077 -510 -1214 -570 l-124 -55 -832 396 -833 396 -6 232 c-9 305
-9 2232 0 2240 3 4 763 6 1687 5 l1681 -3 3 -925z m-3528 -1249 l0 -220 -132
64 -133 63 -3 91 -3 92 133 64 c73 35 134 64 136 64 1 1 2 -98 2 -218z m4023
56 c59 -27 107 -53 107 -56 0 -3 -101 -54 -225 -113 l-225 -106 0 219 0 218
118 -55 c64 -31 165 -79 225 -107z m-4337 -300 c823 -389 1284 -611 1284 -618
0 -5 -291 -318 -647 -696 -357 -378 -699 -741 -761 -808 -63 -66 -118 -122
-123 -123 -5 -2 -9 464 -9 1177 0 650 4 1181 8 1181 5 0 116 -51 248 -113z"/>
<path d="M1427 4642 c-10 -11 -17 -35 -17 -59 0 -36 -4 -43 -43 -68 -61 -38
-82 -76 -82 -150 0 -93 21 -120 135 -177 129 -64 156 -103 111 -159 -30 -37
-93 -33 -152 9 -42 30 -49 32 -70 21 -31 -16 -39 -28 -39 -60 0 -38 32 -73 90
-98 47 -20 50 -24 50 -59 0 -43 7 -55 37 -71 31 -16 41 -14 68 14 18 18 25 35
25 65 0 26 5 40 13 40 19 0 86 58 101 88 21 42 26 100 14 156 -14 70 -71 124
-167 161 -87 33 -114 71 -75 109 19 20 63 20 131 2 49 -13 54 -13 78 6 49 38
23 96 -54 119 -36 11 -41 16 -41 41 0 31 -16 68 -34 80 -20 14 -63 8 -79 -10z"/>
<path d="M1925 4463 c-56 -14 -76 -91 -34 -129 20 -18 54 -19 1028 -22 553 -1
1021 0 1039 3 85 15 98 114 18 145 -27 10 -2009 13 -2051 3z"/>
<path d="M1812 4037 c-29 -31 -28 -72 3 -102 l24 -25 1071 0 1071 0 24 25 c30
30 32 64 4 99 l-20 26 -1078 0 -1078 0 -21 -23z"/>
<path d="M1115 3635 c-14 -13 -25 -36 -25 -50 0 -14 11 -37 25 -50 l24 -25
1421 0 1421 0 24 25 c32 31 32 69 0 100 l-24 25 -1421 0 -1421 0 -24 -25z"/>
<path d="M3605 3415 c-18 -17 -25 -35 -25 -63 0 -34 -4 -41 -40 -61 -52 -29
-80 -83 -80 -153 0 -90 45 -139 173 -192 74 -31 87 -46 87 -100 0 -70 -85 -89
-158 -36 -58 42 -86 39 -111 -8 -20 -39 13 -91 77 -122 46 -22 52 -28 52 -56
0 -39 34 -84 64 -84 42 0 66 27 66 74 0 39 3 45 29 55 36 16 87 68 100 104 15
39 14 131 -3 170 -16 39 -77 94 -125 114 -109 44 -121 53 -121 89 0 56 46 65
164 31 36 -10 40 -9 62 17 13 15 24 34 24 42 0 25 -45 62 -89 74 -39 10 -41
12 -41 50 0 73 -58 103 -105 55z"/>
<path d="M1135 3248 c-50 -27 -60 -80 -22 -116 l23 -22 1075 0 1076 0 21 23
c36 38 28 88 -19 112 -24 13 -176 15 -1081 15 -743 -1 -1059 -4 -1073 -12z"/>
<path d="M1155 2853 c-79 -19 -86 -114 -11 -143 38 -14 2094 -14 2132 0 58 22
71 80 28 121 l-26 24 -1051 1 c-579 1 -1061 0 -1072 -3z"/>
</g>
</svg>
